<?xml version="1.0" encoding="utf-8"?>
<!-- Generator: Adobe Illustrator 16.0.0, SVG Export Plug-In . SVG Version: 6.00 Build 0)  -->
<!DOCTYPE svg PUBLIC "-//W3C//DTD SVG 1.1//EN" "http://www.w3.org/Graphics/SVG/1.1/DTD/svg11.dtd">
<svg version="1.1" id="Capa_1" xmlns="http://www.w3.org/2000/svg" xmlns:xlink="http://www.w3.org/1999/xlink" x="0px" y="0px"
	 width="400px" height="400px" viewBox="0 0 400 400" enable-background="new 0 0 400 400" xml:space="preserve">
<rect fill="#FFFFFF" width="400" height="400"/>
<g>
	<path id="LinkedIn" fill="#74C15C" d="M374.74,239.816v129.162h-74.879V248.468c0-30.274-10.832-50.936-37.936-50.936
		c-20.69,0-33.004,13.923-38.418,27.392c-1.977,4.816-2.484,11.518-2.484,18.258v125.797h-74.906c0,0,1.009-204.108,0-225.254
		h74.898v31.928c-0.152,0.238-0.35,0.497-0.493,0.728h0.493v-0.728c9.951-15.326,27.723-37.22,67.5-37.22
		C337.796,138.432,374.74,170.627,374.74,239.816z M67.763,35.141c-25.625,0-42.386,16.808-42.386,38.91
		c0,21.622,16.276,38.939,41.392,38.939h0.5c26.121,0,42.366-17.314,42.366-38.939C109.143,51.949,93.39,35.141,67.763,35.141z
		 M29.827,368.979h74.876V143.724H29.827V368.979z"/>
</g>
</svg>
