<?xml version="1.0" encoding="utf-8"?>
<!-- Generator: Adobe Illustrator 16.0.0, SVG Export Plug-In . SVG Version: 6.00 Build 0)  -->
<!DOCTYPE svg PUBLIC "-//W3C//DTD SVG 1.1//EN" "http://www.w3.org/Graphics/SVG/1.1/DTD/svg11.dtd">
<svg version="1.1" id="Capa_1" xmlns="http://www.w3.org/2000/svg" xmlns:xlink="http://www.w3.org/1999/xlink" x="0px" y="0px"
	 width="400px" height="400px" viewBox="0 0 400 400" enable-background="new 0 0 400 400" xml:space="preserve">
<rect fill="#74C15C" width="400" height="400"/>
<path fill="#FFFFFF" d="M350.844,152.371c-2.158-36.603-12.409-75.979-31.639-100.096c-19.349-23.239-63.353-31.441-108.776-31.716
	c-27.518,0-60.122,3.02-83.274,9.416c-23.203,6.592-41.669,15.781-54.728,35.682C50.011,99.774,50.762,140.473,53.862,192.44
	C57.8,257.019,73.09,321.368,91.968,380.374c1.937,5.996,8.482,1.937,13.387-1.312c4.897-3.258,8.241-5.012,6.509-9.436
	c-21.616-55.565-38.858-136.293-41.498-177.26c-2.498-39.125-2.254-96.493,17.642-120.428c27.61-33.266,94.455-36.75,120.918-36.725
	c43.764-0.275,77.206,7.8,94.322,24.896c18.637,18.611,28.935,57.256,31.164,91.677c-3.84-0.132-10.443-0.216-14.368-0.351
	c-0.839-9.849-3.864-24.96-9.077-35.536c-8.81-17.617-21.396-29.406-40.976-36.573c-18.503-6.784-43.653-9.59-71.704-9.603
	c-32.677,0.073-67.947,9.754-87.262,34.506c-12.344,16.14-17.095,35.211-17.18,61.453c0.025,24.778,3.417,53.422,13.037,75.484
	c9.572,22.004,24.549,44.357,43.97,53.227c11.46,5.21,28.145,7.572,40.711,6.931c40.78-1.998,119.538-22.474,140.704-53.772
	c22.644-33.466,19.081-81.008,19.081-81.687L350.844,152.371z M227.644,234.508c-10.806,0.543-28.859,1.138-41.097-4.351
	c-18.912-8.482-26.522-31.769-26.463-53.104c0.075-24.087,14.578-54.243,56.719-54.269c39.05-0.037,49.313,22.562,51.127,26.838
	c-5.875-0.667-34.252-3.432-49.118-2.17c-11.306,0.933-30.303,5.284-30.303,28.4c0,23.095,21.12,46.249,65.196,36.517
	c10.714-2.325,33.346-10.127,32.619-48.996c8.118,0.424,12.492,0.376,21.481,0.741C313.222,214.805,273.953,232.119,227.644,234.508
	z M270.549,163.107c2.604,15.688-6.834,37.279-36.834,33.596c-32.422-3.975-24.849-32.651-4.908-33.887
	C246.037,161.773,264.864,162.874,270.549,163.107z M305.262,250.33c-18.72,13.135-54.219,24.936-88.98,30.969
	c-21.823,3.77-46.853,3.09-62.813-7.353c-36.529-23.968-40.927-86.728-40.904-109.833c-0.083-24.574,5.309-73.533,79.86-77.92
	c79.418-4.665,106.453,24.158,113.613,65.9l-22.586-1.322c-2.459-7.354-7.619-15.51-12.369-21.216
	c-10.59-12.224-28.451-20.293-52.223-20.414c-69.398-0.303-76.791,48.138-75.226,71.875c1.634,24.656,9.354,56.011,34.916,66.249
	c10.458,4.193,28.16,5.403,39.96,5.115c38.188-1.31,72.224-14.02,91.379-36.604c7.828-9.27,12.117-29.599,12.117-43.654
	c0-3.344,0.328-4.521,0-7.971c3.402,0.131,12.469,0.459,12.469,0.459C334.582,194.231,331.396,232.023,305.262,250.33z"/>
</svg>
