<?xml version="1.0" encoding="utf-8"?>
<!-- Generator: Adobe Illustrator 16.0.0, SVG Export Plug-In . SVG Version: 6.00 Build 0)  -->
<!DOCTYPE svg PUBLIC "-//W3C//DTD SVG 1.1//EN" "http://www.w3.org/Graphics/SVG/1.1/DTD/svg11.dtd">
<svg version="1.1"
	 id="svg3271" sodipodi:docname="brochuremp2012.pdf" inkscape:version="0.48.5 r10040" xmlns:dc="http://purl.org/dc/elements/1.1/" xmlns:cc="http://creativecommons.org/ns#" xmlns:rdf="http://www.w3.org/1999/02/22-rdf-syntax-ns#" xmlns:svg="http://www.w3.org/2000/svg" xmlns:sodipodi="http://sodipodi.sourceforge.net/DTD/sodipodi-0.dtd" xmlns:inkscape="http://www.inkscape.org/namespaces/inkscape"
	 xmlns="http://www.w3.org/2000/svg" xmlns:xlink="http://www.w3.org/1999/xlink" x="0px" y="0px" width="1000px"
	 height="597.861px" viewBox="0 0 1000 597.861" enable-background="new 0 0 1000 597.861" xml:space="preserve">
<sodipodi:namedview  inkscape:cy="127.15214" inkscape:cx="536.8981" inkscape:zoom="0.48694729" fit-margin-top="0.5" fit-margin-left="0.5" showgrid="false" guidetolerance="10" gridtolerance="10" objecttolerance="10" borderopacity="1" bordercolor="#666666" pagecolor="#ffffff" id="namedview3273" inkscape:current-layer="g3279" inkscape:window-maximized="0" inkscape:window-y="-18" inkscape:window-x="868" fit-margin-right="0.5" fit-margin-bottom="0.5" inkscape:window-height="1044" inkscape:window-width="1047" inkscape:pageshadow="2" inkscape:pageopacity="0">
	</sodipodi:namedview>
<g id="g3279" transform="matrix(1.25,0,0,-1.25,-166.94208,855.98881)" inkscape:label="brochuremp2012" inkscape:groupmode="layer">
	<g id="g3283" transform="matrix(3.6881262,0,0,3.6881262,-411.49822,-397.65318)">
		<g>
			<defs>
				<rect id="SVGID_1_" x="-921.016" y="-818.681" width="2352.268" height="2090.905"/>
			</defs>
			<clipPath id="SVGID_2_">
				<use xlink:href="#SVGID_1_"  overflow="visible"/>
			</clipPath>
			<g id="g3285" clip-path="url(#SVGID_2_)">
				<g id="g3331" transform="translate(340.8157,253.7559)">
					<path id="path3333" inkscape:connector-curvature="0" fill="#74C15C" d="M0,0c2.079,1.159,7.863,4.301,9.691,6.648
						c1.505,1.95-5.338,3.406-6.786,2.226C0.614,6.968-1.79,4.742-3.052,3.428C-5.788,0.588-2.049-1.137,0,0 M22.706-17.368
						c-6.112,1.106-8.623,4.162-9.077,6.791c-1.046,6.073,1.172,8.973-0.735,8.939c-1.915-0.03-5.109-1.275-5.325-3.069
						c-1.016-8.542-4.686-13.56-10.072-13.538c-5.849,0.034-6.843,7.746-5.688,12.691C-7.375-2.04-10.5-2.84-13.115-3.947
						c-0.929-0.406-1.647-0.994-1.984-2.429c-0.7-2.969-1.638-7.569-5.779-10.141c-3.977-2.459-8.853-1.794-9,7.881
						c-0.168,11.001-11.213,6.034-14.77,4.897c-3.562-1.124-5.429-0.588-5.326-4.059c0.229-8.719-6.285-11.424-11.416-11.697
						c-7.227-0.389-10.776,4.854-10.776,6.903c6.462-0.177,10.426,0.424,13.214,2.983c3.687,3.38,2.443,10.823-6.389,11.515
						c-8.844,0.701-13.642-5.697-14.074-9.475c-3.052,0.065-3.739,0.087-6.985,0.173c-0.77,13.059-4.427,27.107-11.287,35.711
						c-6.903,8.291-22.602,11.217-38.808,11.315c-9.817,0-21.449-1.077-29.709-3.359c-8.278-2.352-14.866-5.63-19.525-12.73
						c-7.997-12.172-7.729-26.692-6.623-45.232c1.405-23.039,6.86-45.997,13.595-67.048c0.691-2.139,3.026-0.691,4.776,0.468
						c1.747,1.162,2.94,1.788,2.322,3.366c-7.712,19.824-13.863,48.625-14.805,63.24c-0.891,13.958-0.804,34.425,6.294,42.964
						c9.85,11.868,33.698,13.111,43.139,13.102c15.613,0.098,27.544-2.783,33.651-8.882c6.649-6.64,10.323-20.427,11.118-32.707
						c-1.37,0.047-3.726,0.077-5.126,0.125c-0.299,3.514-1.379,8.905-3.238,12.678c-3.143,6.285-7.634,10.491-14.619,13.048
						c-6.601,2.42-15.574,3.421-25.581,3.426c-11.658-0.026-24.241-3.48-31.132-12.311c-4.404-5.758-6.099-12.562-6.129-21.924
						c0.009-8.84,1.219-19.059,4.651-26.93c3.415-7.85,8.758-15.825,15.687-18.989c4.089-1.859,10.041-2.702,14.524-2.473
						c14.549,0.713,42.647,8.018,50.198,19.184c8.079,11.939,6.808,28.901,6.808,29.143c3.195-0.1,4.98-0.031,6.916-0.031
						c0.32-4.348,4.543-12.366,16.284-12.366c11.744,0,15.492,9.847,16.105,12.552c0.502,2.339,3.312,3.778,6.99,4.219
						c4.643,0.553,0.83-4.228,6.985-11.485c5.603-6.596,12.359-1.738,13.634-0.735c2.594,2.071,5.144,6.774,5.589,8.922
						c0.113-6.804,3.354-10.953,10.331-11.662c7.115-0.709,11.991,4.729,13.509,7.383c4.167-6.86,9.462-8.507,10.879-7.954
						C22.43-22.81,25.348-17.848,22.706-17.368 M-130.353-36.699c-3.855-0.194-10.296-0.406-14.662,1.552
						c-6.747,3.026-9.462,11.334-9.441,18.946c0.027,8.593,5.201,19.352,20.235,19.361c13.932,0.013,17.593-8.049,18.241-9.575
						c-2.096,0.238-12.22,1.224-17.524,0.774c-4.033-0.333-10.811-1.885-10.811-10.132c0-8.239,7.535-16.5,23.26-13.028
						c3.822,0.83,11.896,3.613,11.637,17.48c2.896-0.151,4.457-0.134,7.664-0.264C-99.822-29.67-113.832-35.847-130.353-36.699
						 M-115.046-11.226c0.929-5.597-2.438-13.3-13.141-11.986c-11.567,1.418-8.865,11.649-1.751,12.09
						C-123.791-10.75-117.074-11.143-115.046-11.226 M-102.662-42.344c-6.678-4.686-19.343-8.896-31.745-11.049
						c-7.785-1.344-16.715-1.102-22.409,2.624c-13.032,8.55-14.601,30.941-14.593,39.184c-0.03,8.767,1.894,26.234,28.491,27.799
						c28.334,1.664,37.978-8.619,40.533-23.511l-8.058,0.472c-0.877,2.623-2.719,5.533-4.413,7.569
						c-3.778,4.361-10.15,7.24-18.631,7.283c-24.759,0.108-27.396-17.174-26.838-25.642c0.583-8.796,3.337-19.983,12.457-23.635
						c3.731-1.496,10.046-1.928,14.256-1.825c13.625,0.467,25.767,5.002,32.601,13.059c2.793,3.307,4.323,10.56,4.323,15.574
						c0,1.193,0.117,1.613,0,2.844c1.214-0.047,4.448-0.164,4.448-0.164C-92.201-22.33-93.338-35.813-102.662-42.344 M-66.629-1.694
						c5.581,1.279,7.868-5.309,0.056-5.884c-3.276-0.237-5.831-0.09-5.831-0.09C-71.587-4.642-69.49-2.351-66.629-1.694"/>
				</g>
			</g>
		</g>
	</g>
</g>
</svg>
