<?xml version="1.0" encoding="utf-8"?>
<!-- Generator: Adobe Illustrator 16.0.0, SVG Export Plug-In . SVG Version: 6.00 Build 0)  -->
<!DOCTYPE svg PUBLIC "-//W3C//DTD SVG 1.1//EN" "http://www.w3.org/Graphics/SVG/1.1/DTD/svg11.dtd">
<svg version="1.1" id="Capa_1" xmlns="http://www.w3.org/2000/svg" xmlns:xlink="http://www.w3.org/1999/xlink" x="0px" y="0px"
	 width="400px" height="400px" viewBox="0 0 400 400" enable-background="new 0 0 400 400" xml:space="preserve">
<rect y="0" fill="#F58220" width="400" height="400"/>
<g>
	<g>
		<g>
			<g>
				<defs>
					<rect id="SVGID_1_" y="0" width="400" height="400"/>
				</defs>
				<clipPath id="SVGID_2_">
					<use xlink:href="#SVGID_1_"  overflow="visible"/>
				</clipPath>
				<path clip-path="url(#SVGID_2_)" fill="#FFFFFF" d="M153.624,301.589c94.343,0,145.937-78.161,145.937-145.938
					c0-2.221-0.045-4.431-0.146-6.631c10.017-7.237,18.72-16.271,25.588-26.557c-9.188,4.083-19.081,6.834-29.456,8.075
					c10.59-6.351,18.723-16.397,22.557-28.373c-9.912,5.875-20.888,10.147-32.567,12.45c-9.36-9.972-22.688-16.205-37.44-16.205
					c-28.326,0-51.298,22.971-51.298,51.285c0,4.026,0.451,7.94,1.331,11.695c-42.627-2.143-80.428-22.554-105.722-53.589
					c-4.409,7.578-6.947,16.386-6.947,25.78c0,17.795,9.056,33.504,22.825,42.692c-8.413-0.259-16.318-2.569-23.231-6.416
					c-0.011,0.216-0.011,0.43-0.011,0.653c0,24.844,17.683,45.582,41.15,50.285c-4.308,1.172-8.841,1.805-13.521,1.805
					c-3.304,0-6.518-0.328-9.642-0.926c6.529,20.379,25.464,35.207,47.916,35.625c-17.558,13.758-39.672,21.957-63.704,21.957
					c-4.138,0-8.221-0.238-12.235-0.712C97.7,293.098,124.652,301.589,153.624,301.589"/>
			</g>
		</g>
	</g>
</g>
</svg>
